# xmcd
#
# Track frame offsets:
#	150
#	29775
#	54875
#	74446
#	96701
#	119375
#	140241
#	158535
#	181750
#	197234
#	221362
#	236446
#	256771
#
# Disc length: 3663 seconds
#
# Revision: 0
# Processed by: cddbd v1.5.1PL0 Copyright (c) Steve Scherf et al.
# Submitted via: dBpowerAMP V4.0
#
DISCID=bd0e4d0d
DTITLE=Phil Collins - Love Songs CD2
DYEAR=1900
DGENRE=
TTITLE0=Testify
TTITLE1=True Colours
TTITLE2=You'll Be In My Heart
TTITLE3=If Leave Me Is Easy
TTITLE4=I'Ve Been Trying
TTITLE5=I'Ve Forgotten Everything
TTITLE6=Somewhere
TTITLE7=Least You Can Do
TTITLE8=Two Hearts
TTITLE9=Separate Lives (Live)
TTITLE10=My Girl (Live)
TTITLE11=Always (Live)
TTITLE12=The Way Look Tonight (Live)
EXTD=
EXTT0=
EXTT1=
EXTT2=
EXTT3=
EXTT4=
EXTT5=
EXTT6=
EXTT7=
EXTT8=
EXTT9=
EXTT10=
EXTT11=
EXTT12=
PLAYORDER=
